<?xml version="1.0" encoding="UTF-8"?>
<!-- Generator: Adobe Illustrator 27.3.1, SVG Export Plug-In . SVG Version: 6.00 Build 0)  -->
<svg xmlns="http://www.w3.org/2000/svg" xmlns:xlink="http://www.w3.org/1999/xlink" version="1.1" id="Layer_1" x="0px" y="0px" viewBox="0 0 593 382.8" style="enable-background:new 0 0 593 382.8;" xml:space="preserve">
<style type="text/css">
	.st0{fill:#C5C6C8;}
	.st1{fill:#3A3A3A;}
	.st2{clip-path:url(#SVGID_00000116202977844983223470000006028023893102741175_);}
	.st3{fill:url(#Rectangle_9432_00000083774341883244021860000014549799330891584928_);}
	.st4{fill:url(#Rectangle_9450_00000143607893027329352970000012764457465615103126_);}
	.st5{fill:url(#Rectangle_9451_00000125593866844695941060000014377880795809175225_);}
	.st6{fill:url(#Rectangle_9452_00000117672406040608435430000009935901218812885664_);}
	.st7{fill:url(#Rectangle_9453_00000183932470106093222580000005749147490897766028_);}
	.st8{fill:url(#Rectangle_9454_00000165199979606026091840000008418738006267200185_);}
	.st9{fill:url(#Rectangle_9455_00000163791672936852834040000015063957254462062487_);}
	.st10{fill:url(#Rectangle_9456_00000039122761777839337380000010365861211278580117_);}
	.st11{fill:url(#Rectangle_9457_00000155851590418283853110000015076148623444762556_);}
	.st12{fill:url(#Rectangle_9458_00000132794380929724123640000018369952262694773642_);}
	.st13{fill:url(#Rectangle_9459_00000080177904588062005860000018121464201453616567_);}
	.st14{fill:url(#Rectangle_9462_00000053508854826305161420000008366892260906836155_);}
	.st15{fill:url(#Rectangle_9463_00000108279262616894983800000017491183947312950152_);}
	.st16{fill:url(#Rectangle_9464_00000142139673024985205320000017294800045442329511_);}
	.st17{fill:url(#Rectangle_9465_00000035518224644428686570000016591935621757375152_);}
	.st18{fill:url(#Rectangle_9466_00000147909320887908761520000000254989891772203651_);}
	.st19{fill:url(#Rectangle_9460_00000026151933375743557710000006413459544997784499_);}
	.st20{fill:url(#Rectangle_9461_00000168814070571622189840000017867104664676727968_);}
</style>
<g id="logo-2" transform="translate(-172 -49)">
	<path id="Path_8225" class="st0" d="M441.1,181.1c-1.4,0-2.5,1.1-2.5,2.5v160.9c0,1.4,1.2,2.4,2.5,2.4c1.3,0,2.3-1.1,2.4-2.4V183.6   C443.6,182.2,442.5,181.1,441.1,181.1"></path>
	<path id="Path_8226" class="st1" d="M285.6,307.6c-2.3-1.3-4.7-2.4-7.3-3.1c-2.9-0.9-5-1.6-6.2-2.1c-1.1-0.4-2.2-1-3.1-1.8   c-0.8-0.7-1.3-1.7-1.2-2.8c0-3.3,2.5-4.9,7.4-4.9c4.5,0.1,9,0.5,13.5,1.1l0.7-7.4c-4-0.7-7.1-1.2-9.2-1.5c-2-0.2-4-0.4-6.1-0.4   c-5,0-8.9,1.2-11.6,3.5c-2.8,2.3-4.1,5.7-4.1,10.3c-0.1,2.2,0.4,4.3,1.4,6.3c1.1,1.8,2.6,3.3,4.5,4.4c2.7,1.5,5.5,2.6,8.5,3.3   c2.2,0.6,4.4,1.4,6.4,2.4c1.3,0.8,2,2.1,1.9,3.6c0,4-2.4,6-7.2,6c-4.7-0.1-9.3-0.5-13.9-1.2l-1,7.3l2.4,0.5c4.3,1,8.6,1.5,13,1.6   c4.9,0,8.8-1.3,11.7-3.8s4.3-6.2,4.3-10.9c0.1-2.1-0.3-4.3-1.2-6.2C288.5,310,287.2,308.6,285.6,307.6"></path>
	<path id="Path_8227" class="st1" d="M310.8,297c-5.2,0-9.1,1.5-11.5,4.6s-3.7,7.8-3.7,14c0,6,1.2,10.3,3.5,13c2.4,2.7,6.2,4,11.5,4   c4.6-0.1,9.2-0.7,13.7-1.9l-0.1-6.7l-1.9,0.2c-1,0.1-2.5,0.2-4.6,0.3c-2.1,0.1-3.9,0.1-5.4,0.1c-1.5,0.1-3-0.1-4.5-0.5   c-1-0.3-1.8-0.9-2.3-1.8c-0.6-1.1-0.8-2.4-0.8-3.6h20l0.7-6.3c0-5.1-1.2-9-3.7-11.5C319.2,298.3,315.6,297,310.8,297 M304.7,311.7   c0-2.6,0.5-4.5,1.4-5.6s2.4-1.7,4.6-1.7c2.1,0,3.6,0.5,4.5,1.6c0.8,1.1,1.3,3,1.3,5.7L304.7,311.7z"></path>
	<path id="Path_8228" class="st1" d="M349.9,297c-1.5,0-2.9,0.2-4.3,0.6c-1.6,0.5-3.1,1.1-4.6,1.9v-15.2h-9.1v47.6h9.1v-25.6   l0.9-0.3c1.6-0.5,3.4-0.8,5.1-0.8c2.1,0,3.5,0.6,4.2,1.9c0.7,1.3,1.1,3.4,1.1,6.5v18.2h9.1v-18.4c0-5.6-0.9-9.8-2.6-12.4   S354.1,297,349.9,297"></path>
	<path id="Path_8229" class="st1" d="M396.1,324.9c-0.4-0.7-0.6-1.5-0.6-2.3v-14.1c0-4-1-6.9-2.9-8.7c-1.9-1.8-5.1-2.7-9.4-2.7   c-4.7,0-9.4,0.7-13.9,2l0.3,6.3c1.8-0.1,4-0.3,6.6-0.4c2.6-0.1,4.7-0.2,6.2-0.2c1.1-0.1,2.2,0.2,3.1,0.8c0.7,0.8,1,1.8,0.9,2.9v2.1   l-7.3,0.5c-4.2,0.3-7.2,1.2-9.1,2.8c-1.9,1.6-2.8,4.1-2.8,7.6c0,7.4,3.5,11.2,10.5,11.2c3.5,0,6.9-0.8,10-2.4   c1.2,0.9,2.6,1.5,4.1,1.9c1.8,0.4,3.7,0.5,5.6,0.5l0.3-6.9C397.2,325.7,396.6,325.3,396.1,324.9 M386.5,324.1l-1,0.3   c-1.8,0.5-3.7,0.8-5.6,0.8c-2.2,0-3.3-1.2-3.3-3.7c0-2.5,1.3-3.9,3.8-4.1l6.2-0.5V324.1z"></path>
	<rect id="Rectangle_9442" x="248" y="198.7" class="st1" width="7" height="8.5"></rect>
	<path id="Path_8230" class="st1" d="M394.2,218.1c-2.4-3.5-6.4-5.3-12.1-5.3c-2.6-0.1-5.3,0.5-7.7,1.5c-2.1,0.9-4.1,2.3-5.8,3.9   c-2,1.9-3.8,4-5.5,6.2v-10.9h-9.1v25.7h-16V224c0-3.9-1-6.7-3-8.5s-5-2.7-9.3-2.7c-2.8,0-5.7,0.3-8.5,0.6c-2.9,0.3-5.8,0.9-8.6,1.6   l0.3,6.1l3.5-0.1c3.1-0.1,6.7-0.3,10.9-0.4c2,0,3.5,0.5,4.3,1.5c0.9,1.3,1.4,2.8,1.3,4.4v12.8h-66.7v-25.5   c-1.5-0.2-3.9-0.4-7.5-0.6c-3.5-0.2-6.6-0.3-9.1-0.3c-4.8,0-8.5,0.5-11.1,1.5c-2.5,0.9-4.6,2.7-5.7,5.1c-1.2,2.4-1.8,5.9-1.8,10.5   c0,4.8,0.6,8.5,1.9,11c1.1,2.4,3.2,4.3,5.7,5.2c3.4,1.1,7,1.6,10.6,1.4h152.6v-17.1C397.9,226,396.7,221.7,394.2,218.1 M253,239.2   h-7.3c-1.9,0.1-3.8-0.2-5.6-0.7c-1.3-0.5-2.4-1.5-3-2.8c-0.8-1.8-1.1-3.8-1-5.8c-0.1-1.9,0.2-3.7,1-5.4c0.6-1.2,1.7-2.2,3-2.6   c1.9-0.6,3.8-0.8,5.8-0.7c2.5,0,4.9,0.1,7.1,0.3V239.2z M388.7,239.2h-25.6v-3.1c1.9-3.9,4.4-7.4,7.5-10.4c3.1-3,6.2-4.5,9.4-4.5   c2.6-0.1,5,1.1,6.4,3.2c1.6,2.3,2.4,5.1,2.3,7.9L388.7,239.2z"></path>
	<rect id="Rectangle_9443" x="237.7" y="198.7" class="st1" width="7" height="8.5"></rect>
	<g id="Group_4352" transform="translate(426.281 49)">
		<g id="Group_4351" transform="translate(171.281 0)">
			<g>
				<defs>
					<path id="SVGID_1_" d="M60.4,84.9c-3,0-5.4,2.4-5.4,5.4c0,3,2.4,5.4,5.4,5.4h40.7c3,0,5.4-2.4,5.4-5.4c0-3-2.4-5.4-5.4-5.4       H60.4z"></path>
				</defs>
				<clipPath id="SVGID_00000003087468151551956470000014195635035293354672_">
					<use xlink:href="#SVGID_1_" style="overflow:visible;"></use>
				</clipPath>
				
					<g id="Group_4350" transform="translate(0)" style="clip-path:url(#SVGID_00000003087468151551956470000014195635035293354672_);">
					
						<linearGradient id="Rectangle_9432_00000090263425029459553590000000693298174543748260_" gradientUnits="userSpaceOnUse" x1="-428.5328" y1="583.3067" x2="-425.2208" y2="583.2817" gradientTransform="matrix(51.517 0 0 -10.812 21974.1953 6396.7598)">
						<stop offset="0" style="stop-color:#2C6BB7"></stop>
						<stop offset="1" style="stop-color:#7CB6DD"></stop>
					</linearGradient>
					
						<rect id="Rectangle_9432" x="55" y="84.9" style="fill:url(#Rectangle_9432_00000090263425029459553590000000693298174543748260_);" width="51.5" height="10.8"></rect>
				</g>
			</g>
		</g>
		
			<linearGradient id="Rectangle_9450_00000039826923997799183060000001764387325559528632_" gradientUnits="userSpaceOnUse" x1="-257.2822" y1="580.9485" x2="-253.9702" y2="580.9235" gradientTransform="matrix(53 0 0 -10 13699.6123 5899.5356)">
			<stop offset="0" style="stop-color:#2C6BB7"></stop>
			<stop offset="1" style="stop-color:#7CB6DD"></stop>
		</linearGradient>
		<path id="Rectangle_9450" style="fill:url(#Rectangle_9450_00000039826923997799183060000001764387325559528632_);" d="    M230.7,85.3h43c2.8,0,5,2.2,5,5l0,0c0,2.8-2.2,5-5,5h-43c-2.8,0-5-2.2-5-5l0,0C225.7,87.6,228,85.3,230.7,85.3z"></path>
		
			<linearGradient id="Rectangle_9451_00000125591819611767614690000002532871611631829664_" gradientUnits="userSpaceOnUse" x1="-257.5153" y1="583.8031" x2="-254.2033" y2="583.7781" gradientTransform="matrix(68 0 0 -11 17518.8281 6526.3574)">
			<stop offset="0" style="stop-color:#2C6BB7"></stop>
			<stop offset="1" style="stop-color:#7CB6DD"></stop>
		</linearGradient>
		<path id="Rectangle_9451" style="fill:url(#Rectangle_9451_00000125591819611767614690000002532871611631829664_);" d="    M221.2,99.3h57c3,0,5.5,2.5,5.5,5.5l0,0c0,3-2.5,5.5-5.5,5.5h-57c-3,0-5.5-2.5-5.5-5.5l0,0C215.7,101.8,218.2,99.3,221.2,99.3z"></path>
		
			<linearGradient id="Rectangle_9452_00000181809344522731696820000004940250485368157617_" gradientUnits="userSpaceOnUse" x1="-257.5921" y1="580.9485" x2="-254.2801" y2="580.9235" gradientTransform="matrix(75 0 0 -10 19294.7949 5928.5356)">
			<stop offset="0" style="stop-color:#2C6BB7"></stop>
			<stop offset="1" style="stop-color:#7CB6DD"></stop>
		</linearGradient>
		<path id="Rectangle_9452" style="fill:url(#Rectangle_9452_00000181809344522731696820000004940250485368157617_);" d="    M209.7,114.3h65c2.8,0,5,2.2,5,5l0,0c0,2.8-2.2,5-5,5h-65c-2.8,0-5-2.2-5-5l0,0C204.7,116.6,207,114.3,209.7,114.3z"></path>
		
			<linearGradient id="Rectangle_9453_00000067200251294152713950000016077092009845409437_" gradientUnits="userSpaceOnUse" x1="-257.5717" y1="580.9485" x2="-254.2597" y2="580.9235" gradientTransform="matrix(73 0 0 -10 18775.2324 5942.5356)">
			<stop offset="0" style="stop-color:#2C6BB7"></stop>
			<stop offset="1" style="stop-color:#7CB6DD"></stop>
		</linearGradient>
		<path id="Rectangle_9453" style="fill:url(#Rectangle_9453_00000067200251294152713950000016077092009845409437_);" d="    M200.7,128.3h63c2.8,0,5,2.2,5,5l0,0c0,2.8-2.2,5-5,5h-63c-2.8,0-5-2.2-5-5l0,0C195.7,130.6,198,128.3,200.7,128.3z"></path>
		
			<linearGradient id="Rectangle_9454_00000023264530479933325510000015184609151545793954_" gradientUnits="userSpaceOnUse" x1="-257.5821" y1="583.8031" x2="-254.2701" y2="583.7781" gradientTransform="matrix(74 0 0 -11 19019.5137 6569.3574)">
			<stop offset="0" style="stop-color:#2C6BB7"></stop>
			<stop offset="1" style="stop-color:#7CB6DD"></stop>
		</linearGradient>
		<path id="Rectangle_9454" style="fill:url(#Rectangle_9454_00000023264530479933325510000015184609151545793954_);" d="    M190.2,142.3h63c3,0,5.5,2.5,5.5,5.5l0,0c0,3-2.5,5.5-5.5,5.5h-63c-3,0-5.5-2.5-5.5-5.5l0,0C184.7,144.8,187.2,142.3,190.2,142.3z    "></path>
		
			<linearGradient id="Rectangle_9455_00000041978474436876521980000009350742360040669104_" gradientUnits="userSpaceOnUse" x1="-257.5821" y1="580.9485" x2="-254.2701" y2="580.9235" gradientTransform="matrix(74 0 0 -10 19009.5137 5971.5356)">
			<stop offset="0" style="stop-color:#2C6BB7"></stop>
			<stop offset="1" style="stop-color:#7CB6DD"></stop>
		</linearGradient>
		<path id="Rectangle_9455" style="fill:url(#Rectangle_9455_00000041978474436876521980000009350742360040669104_);" d="    M179.7,157.3h64c2.8,0,5,2.2,5,5l0,0c0,2.8-2.2,5-5,5h-64c-2.8,0-5-2.2-5-5l0,0C174.7,159.6,177,157.3,179.7,157.3z"></path>
		
			<linearGradient id="Rectangle_9456_00000076578083666290195190000004115389891493773979_" gradientUnits="userSpaceOnUse" x1="-257.5921" y1="583.8031" x2="-254.2801" y2="583.7781" gradientTransform="matrix(75 0 0 -11 19253.7949 6598.3574)">
			<stop offset="0" style="stop-color:#2C6BB7"></stop>
			<stop offset="1" style="stop-color:#7CB6DD"></stop>
		</linearGradient>
		<path id="Rectangle_9456" style="fill:url(#Rectangle_9456_00000076578083666290195190000004115389891493773979_);" d="    M169.2,171.3h64c3,0,5.5,2.5,5.5,5.5l0,0c0,3-2.5,5.5-5.5,5.5h-64c-3,0-5.5-2.5-5.5-5.5l0,0C163.7,173.8,166.2,171.3,169.2,171.3z    "></path>
		
			<linearGradient id="Rectangle_9457_00000123403495215370603230000009311383592898386846_" gradientUnits="userSpaceOnUse" x1="-257.5921" y1="580.9485" x2="-254.2801" y2="580.9235" gradientTransform="matrix(75 0 0 -10 19242.7949 6000.5356)">
			<stop offset="0" style="stop-color:#2C6BB7"></stop>
			<stop offset="1" style="stop-color:#7CB6DD"></stop>
		</linearGradient>
		<path id="Rectangle_9457" style="fill:url(#Rectangle_9457_00000123403495215370603230000009311383592898386846_);" d="    M157.7,186.3h65c2.8,0,5,2.2,5,5l0,0c0,2.8-2.2,5-5,5h-65c-2.8,0-5-2.2-5-5l0,0C152.7,188.6,155,186.3,157.7,186.3z"></path>
		
			<linearGradient id="Rectangle_9458_00000068670180335943705300000007612337643155635095_" gradientUnits="userSpaceOnUse" x1="-257.5821" y1="583.8031" x2="-254.2701" y2="583.7781" gradientTransform="matrix(74 0 0 -11 18977.5137 6627.3574)">
			<stop offset="0" style="stop-color:#2C6BB7"></stop>
			<stop offset="1" style="stop-color:#7CB6DD"></stop>
		</linearGradient>
		<path id="Rectangle_9458" style="fill:url(#Rectangle_9458_00000068670180335943705300000007612337643155635095_);" d="    M148.2,200.3h63c3,0,5.5,2.5,5.5,5.5l0,0c0,3-2.5,5.5-5.5,5.5h-63c-3,0-5.5-2.5-5.5-5.5l0,0C142.7,202.8,145.2,200.3,148.2,200.3z    "></path>
		
			<linearGradient id="Rectangle_9459_00000173855707517616782780000014206335874846970507_" gradientUnits="userSpaceOnUse" x1="-257.6388" y1="583.8031" x2="-254.3268" y2="583.7781" gradientTransform="matrix(80 0 0 -11 20421.1992 6627.3574)">
			<stop offset="0" style="stop-color:#2C6BB7"></stop>
			<stop offset="1" style="stop-color:#7CB6DD"></stop>
		</linearGradient>
		<path id="Rectangle_9459" style="fill:url(#Rectangle_9459_00000173855707517616782780000014206335874846970507_);" d="    M60.2,200.3h69c3,0,5.5,2.5,5.5,5.5l0,0c0,3-2.5,5.5-5.5,5.5h-69c-3,0-5.5-2.5-5.5-5.5l0,0C54.7,202.8,57.2,200.3,60.2,200.3z"></path>
		
			<linearGradient id="Rectangle_9462_00000069365926649414312620000007061356070968823176_" gradientUnits="userSpaceOnUse" x1="-257.9388" y1="583.8031" x2="-254.6268" y2="583.7781" gradientTransform="matrix(140 0 0 -11 35750.0586 6641.3574)">
			<stop offset="0" style="stop-color:#2C6BB7"></stop>
			<stop offset="1" style="stop-color:#7CB6DD"></stop>
		</linearGradient>
		<path id="Rectangle_9462" style="fill:url(#Rectangle_9462_00000069365926649414312620000007061356070968823176_);" d="    M72.2,214.3h129c3,0,5.5,2.5,5.5,5.5l0,0c0,3-2.5,5.5-5.5,5.5h-129c-3,0-5.5-2.5-5.5-5.5l0,0C66.7,216.8,69.2,214.3,72.2,214.3z"></path>
		
			<linearGradient id="Rectangle_9463_00000171691949459471515180000001193871098475343746_" gradientUnits="userSpaceOnUse" x1="-257.8642" y1="583.8031" x2="-254.5522" y2="583.7781" gradientTransform="matrix(118 0 0 -11 30145.877 6656.3574)">
			<stop offset="0" style="stop-color:#2C6BB7"></stop>
			<stop offset="1" style="stop-color:#7CB6DD"></stop>
		</linearGradient>
		<path id="Rectangle_9463" style="fill:url(#Rectangle_9463_00000171691949459471515180000001193871098475343746_);" d="    M84.2,229.3h107c3,0,5.5,2.5,5.5,5.5l0,0c0,3-2.5,5.5-5.5,5.5h-107c-3,0-5.5-2.5-5.5-5.5l0,0C78.7,231.8,81.2,229.3,84.2,229.3z"></path>
		
			<linearGradient id="Rectangle_9464_00000029009708679607691560000008184242010452684476_" gradientUnits="userSpaceOnUse" x1="-257.7431" y1="583.8031" x2="-254.4311" y2="583.7781" gradientTransform="matrix(94 0 0 -11 24032.1328 6670.3574)">
			<stop offset="0" style="stop-color:#2C6BB7"></stop>
			<stop offset="1" style="stop-color:#7CB6DD"></stop>
		</linearGradient>
		<path id="Rectangle_9464" style="fill:url(#Rectangle_9464_00000029009708679607691560000008184242010452684476_);" d="    M97.2,243.3h83c3,0,5.5,2.5,5.5,5.5l0,0c0,3-2.5,5.5-5.5,5.5h-83c-3,0-5.5-2.5-5.5-5.5l0,0C91.7,245.8,94.2,243.3,97.2,243.3z"></path>
		
			<linearGradient id="Rectangle_9465_00000111875974623696098930000016593916483935386504_" gradientUnits="userSpaceOnUse" x1="-257.561" y1="583.8031" x2="-254.249" y2="583.7781" gradientTransform="matrix(72 0 0 -11 18427.9512 6685.3574)">
			<stop offset="0" style="stop-color:#2C6BB7"></stop>
			<stop offset="1" style="stop-color:#7CB6DD"></stop>
		</linearGradient>
		<path id="Rectangle_9465" style="fill:url(#Rectangle_9465_00000111875974623696098930000016593916483935386504_);" d="    M109.2,258.3h61c3,0,5.5,2.5,5.5,5.5l0,0c0,3-2.5,5.5-5.5,5.5h-61c-3,0-5.5-2.5-5.5-5.5l0,0C103.7,260.8,106.2,258.3,109.2,258.3z    "></path>
		
			<linearGradient id="Rectangle_9466_00000140700533028870767110000001527060357111092878_" gradientUnits="userSpaceOnUse" x1="-257.1721" y1="583.8031" x2="-253.8601" y2="583.7781" gradientTransform="matrix(48 0 0 -11 12314.207 6699.3574)">
			<stop offset="0" style="stop-color:#2C6BB7"></stop>
			<stop offset="1" style="stop-color:#7CB6DD"></stop>
		</linearGradient>
		<path id="Rectangle_9466" style="fill:url(#Rectangle_9466_00000140700533028870767110000001527060357111092878_);" d="    M122.2,272.3h37c3,0,5.5,2.5,5.5,5.5l0,0c0,3-2.5,5.5-5.5,5.5h-37c-3,0-5.5-2.5-5.5-5.5l0,0C116.7,274.8,119.2,272.3,122.2,272.3z    "></path>
		
			<linearGradient id="Rectangle_9460_00000076602332240019814290000003714143509829533616_" gradientUnits="userSpaceOnUse" x1="-257.4208" y1="580.9485" x2="-254.1088" y2="580.9235" gradientTransform="matrix(61 0 0 -10 15570.8604 6000.5356)">
			<stop offset="0" style="stop-color:#2C6BB7"></stop>
			<stop offset="1" style="stop-color:#7CB6DD"></stop>
		</linearGradient>
		<path id="Rectangle_9460" style="fill:url(#Rectangle_9460_00000076602332240019814290000003714143509829533616_);" d="    M59.7,186.3h51c2.8,0,5,2.2,5,5l0,0c0,2.8-2.2,5-5,5h-51c-2.8,0-5-2.2-5-5l0,0C54.7,188.6,57,186.3,59.7,186.3z"></path>
		
			<linearGradient id="Rectangle_9461_00000096018891401766573860000013935217998262864263_" gradientUnits="userSpaceOnUse" x1="-256.5323" y1="583.8031" x2="-253.2204" y2="583.7781" gradientTransform="matrix(31 0 0 -11 7924.4302 6598.3574)">
			<stop offset="0" style="stop-color:#2C6BB7"></stop>
			<stop offset="1" style="stop-color:#7CB6DD"></stop>
		</linearGradient>
		<path id="Rectangle_9461" style="fill:url(#Rectangle_9461_00000096018891401766573860000013935217998262864263_);" d="    M72.2,171.3h20c3,0,5.5,2.5,5.5,5.5l0,0c0,3-2.5,5.5-5.5,5.5h-20c-3,0-5.5-2.5-5.5-5.5l0,0C66.7,173.8,69.2,171.3,72.2,171.3z"></path>
	</g>
</g>
</svg>
